<?xml version="1.0" standalone="no"?>
<!DOCTYPE svg PUBLIC "-//W3C//DTD SVG 20010904//EN"
 "http://www.w3.org/TR/2001/REC-SVG-20010904/DTD/svg10.dtd">
<svg version="1.0" xmlns="http://www.w3.org/2000/svg"
 width="160.000000pt" height="160.000000pt" viewBox="0 0 160.000000 160.000000"
 preserveAspectRatio="xMidYMid meet">
<metadata>
Created by potrace 1.11, written by Peter Selinger 2001-2013
</metadata>
<g transform="translate(0.000000,160.000000) scale(0.100000,-0.100000)"
fill="#000000" stroke="none">
<path d="M798 1583 c-28 -7 -31 -40 -8 -78 24 -39 37 -150 19 -161 -6 -3 -38
-13 -72 -20 -65 -16 -63 -17 -92 36 -17 33 -24 89 -14 117 18 48 -49 64 -88
21 -17 -19 -17 -21 7 -42 42 -36 52 -54 66 -112 11 -50 11 -56 -4 -61 -9 -3
-25 -13 -34 -21 -27 -23 -48 -8 -48 36 0 21 -5 43 -12 50 -18 18 -52 14 -76
-8 -35 -33 -29 -52 31 -92 l38 -25 -36 -27 -35 -27 -38 27 c-51 37 -90 90
-102 138 -14 56 -24 70 -49 74 -29 5 -91 -57 -91 -91 0 -23 17 -39 45 -42 26
-3 63 -20 92 -41 44 -33 98 -113 85 -126 -10 -10 -52 35 -52 57 0 25 -31 25
-56 0 -25 -25 -33 -74 -11 -76 14 -2 55 -6 80 -8 16 -1 15 -4 -5 -36 -21 -32
-26 -35 -60 -31 -72 10 -107 31 -165 103 -26 31 -58 15 -74 -36 -17 -58 -2
-73 65 -67 40 4 63 0 101 -18 70 -32 80 -46 64 -91 -10 -26 -17 -34 -29 -29
-42 19 -67 16 -83 -10 -38 -57 15 -137 69 -103 7 4 11 -11 12 -46 1 -29 3 -62
6 -75 5 -22 2 -23 -32 -21 -20 2 -41 5 -47 8 -5 3 -20 7 -32 9 -39 5 -44 -75
-7 -112 22 -23 27 -21 74 24 43 41 60 49 60 28 0 -6 10 -31 21 -55 21 -43 21
-44 3 -65 -28 -31 -98 -59 -156 -63 -71 -5 -85 -32 -48 -92 37 -62 91 -66 110
-8 16 48 45 81 96 111 l45 27 40 -39 c21 -21 39 -41 39 -44 0 -8 -67 -40 -85
-40 -7 0 -17 -10 -21 -22 -5 -17 1 -28 25 -50 17 -15 35 -28 39 -28 17 1 33
19 38 43 7 41 23 77 33 77 6 0 25 -9 43 -19 18 -11 56 -27 85 -36 l52 -17 -19
-52 c-13 -32 -36 -67 -65 -93 -25 -23 -45 -46 -45 -51 0 -26 67 -58 100 -47
17 5 19 14 18 63 -2 57 26 137 55 160 17 13 187 22 187 10 0 -5 -5 -19 -12
-31 -16 -30 -18 -48 -7 -68 18 -35 96 -32 122 5 10 15 -1 55 -25 89 -17 24
-18 31 -7 38 8 5 20 9 27 9 7 0 31 9 53 20 l40 21 29 -21 c38 -27 80 -98 80
-136 0 -17 5 -35 11 -41 15 -15 59 2 81 31 15 21 15 25 2 45 -9 12 -19 19 -23
16 -23 -14 -120 95 -121 135 0 9 13 23 29 33 27 16 29 16 50 -7 12 -12 27 -42
34 -67 15 -52 40 -61 75 -28 33 30 25 61 -18 74 -64 18 -101 56 -78 79 12 11
23 9 74 -14 65 -29 116 -77 136 -125 21 -52 40 -57 81 -21 30 26 45 81 28 105
-5 9 -30 15 -64 16 -60 2 -121 32 -169 82 l-27 28 21 33 21 33 26 -25 c23 -22
29 -24 50 -13 54 26 39 116 -16 102 -23 -5 -25 -4 -19 17 4 13 12 47 18 76 12
49 14 52 44 52 17 0 52 -11 78 -25 37 -20 51 -23 67 -15 38 21 17 120 -25 120
-7 0 -25 -10 -40 -21 -15 -12 -45 -23 -67 -24 l-39 -3 0 49 c0 39 3 47 15 43
20 -8 45 13 45 38 0 10 -7 33 -16 50 -13 26 -20 29 -44 25 -33 -7 -47 14 -23
34 28 24 79 35 145 32 60 -2 66 -1 76 21 8 18 6 32 -8 63 -33 75 -68 79 -114
15 -31 -42 -97 -92 -123 -92 -14 0 -83 98 -83 118 0 33 -25 54 -66 57 -46 2
-84 20 -84 38 0 28 61 108 94 124 58 27 58 60 -2 89 -35 16 -36 16 -53 -5 -9
-11 -15 -30 -12 -40 8 -31 -14 -83 -53 -123 -38 -41 -42 -43 -64 -28 -13 9
-11 13 10 31 14 11 33 27 43 35 26 21 6 51 -39 60 -44 8 -51 -1 -48 -61 3 -54
-12 -66 -65 -54 -20 4 -38 7 -41 6 -3 -1 -6 22 -6 51 -1 38 5 66 22 100 13 26
21 54 19 63 -8 24 -52 34 -97 22z"/>
</g>
</svg>
