<?xml version="1.0" standalone="no"?>
<!DOCTYPE svg PUBLIC "-//W3C//DTD SVG 20010904//EN"
 "http://www.w3.org/TR/2001/REC-SVG-20010904/DTD/svg10.dtd">
<svg version="1.0" xmlns="http://www.w3.org/2000/svg"
 width="491.000000pt" height="491.000000pt" viewBox="0 0 491.000000 491.000000"
 preserveAspectRatio="xMidYMid meet">
<metadata>
Created by potrace 1.11, written by Peter Selinger 2001-2013
</metadata>
<g transform="translate(0.000000,491.000000) scale(0.100000,-0.100000)"
fill="#000000" stroke="none">
<path d="M2137 4894 c-796 -102 -1488 -587 -1868 -1309 -177 -336 -269 -721
-269 -1130 0 -266 33 -492 106 -732 232 -760 857 -1385 1617 -1617 400 -122
870 -141 1270 -51 713 161 1304 616 1648 1270 177 336 269 721 269 1130 0 569
-174 1078 -521 1520 -397 508 -985 840 -1629 920 -153 19 -472 18 -623 -1z
m488 -1128 c118 -32 195 -89 243 -181 25 -47 27 -58 27 -181 l0 -130 -39 -79
c-52 -106 -135 -187 -253 -248 -136 -70 -225 -96 -450 -133 -42 -6 -46 20 -6
31 41 10 193 87 260 131 77 51 172 146 215 214 58 91 73 143 73 250 0 87 -3
100 -30 149 -56 102 -162 143 -312 122 -188 -26 -370 -125 -511 -276 -78 -83
-115 -138 -163 -239 -88 -189 -92 -369 -11 -520 15 -28 63 -87 107 -132 83
-83 181 -143 297 -183 60 -20 71 -37 33 -51 -53 -20 -171 -104 -238 -169 -85
-81 -149 -170 -185 -253 -36 -85 -37 -232 -3 -320 28 -72 97 -137 171 -161 66
-21 212 -22 299 -2 142 34 307 150 397 280 43 64 61 72 39 18 -62 -149 -224
-313 -392 -397 -248 -123 -525 -102 -664 51 -68 74 -99 167 -99 296 0 148 42
266 134 379 57 70 178 162 274 208 39 19 72 38 72 42 0 5 -18 8 -40 8 -113 0
-257 60 -341 143 -60 58 -108 141 -135 232 -24 80 -24 246 0 335 98 366 511
717 918 779 79 12 247 5 313 -13z m290 -1136 c3 -5 -1 -70 -11 -142 -13 -107
-16 -178 -11 -358 4 -124 11 -238 16 -255 5 -16 10 -22 10 -13 2 42 85 268
140 383 136 285 255 401 330 321 20 -21 27 -50 47 -203 45 -337 80 -452 159
-521 66 -59 159 -36 268 67 73 69 74 61 5 -41 -66 -99 -151 -147 -257 -148
-78 0 -135 25 -182 78 -73 83 -128 257 -153 488 -8 75 -17 138 -19 141 -8 7
-56 -56 -98 -129 -61 -104 -122 -248 -170 -399 -34 -107 -48 -140 -75 -167
-40 -40 -77 -40 -107 -1 -41 56 -86 344 -94 604 -6 209 -1 236 52 271 44 29
138 44 150 24z"/>
</g>
</svg>
