<?xml version="1.0" standalone="no"?>
<!DOCTYPE svg PUBLIC "-//W3C//DTD SVG 20010904//EN"
 "http://www.w3.org/TR/2001/REC-SVG-20010904/DTD/svg10.dtd">
<svg version="1.0" xmlns="http://www.w3.org/2000/svg"
 width="2000.000000pt" height="2000.000000pt" viewBox="0 0 2000.000000 2000.000000"
 preserveAspectRatio="xMidYMid meet">
<metadata>
Created by potrace 1.11, written by Peter Selinger 2001-2013
</metadata>
<g transform="translate(0.000000,2000.000000) scale(0.100000,-0.100000)"
fill="#000000" stroke="none">
<path d="M3505 14326 c-16 -7 -39 -23 -50 -35 -22 -25 -24 -63 -11 -301 4 -74
9 -175 11 -225 3 -49 7 -135 10 -190 6 -112 13 -267 20 -430 3 -60 7 -164 10
-230 3 -66 8 -181 10 -255 3 -74 7 -191 10 -260 11 -277 15 -392 20 -530 2
-80 7 -224 11 -320 3 -96 7 -224 9 -285 2 -60 7 -249 11 -420 15 -544 10
-1300 -11 -1757 -2 -43 -6 -142 -9 -220 -4 -79 -9 -186 -11 -238 -3 -52 -8
-144 -10 -205 -8 -152 -14 -263 -20 -375 -9 -167 -14 -262 -20 -380 -3 -63 -7
-149 -10 -190 -8 -141 -16 -332 -31 -709 -11 -288 -12 -351 -15 -611 -2 -229
0 -259 16 -290 26 -50 59 -73 122 -85 15 -2 603 -7 1307 -10 2837 -13 3068
-15 3521 -30 332 -11 533 -24 670 -46 90 -13 181 -11 223 7 46 19 98 68 122
115 31 60 87 275 116 444 2 17 11 66 19 110 8 44 17 98 21 120 3 22 7 51 9 64
2 13 7 45 11 70 3 25 8 57 10 71 2 14 7 45 10 70 3 25 7 52 9 60 2 8 7 42 11
75 3 33 8 67 9 75 2 9 6 43 10 75 12 96 13 108 20 155 20 150 30 287 30 435 0
141 -2 153 -24 192 -35 62 -57 66 -284 58 -106 -4 -210 -8 -232 -10 -22 -2
-80 -6 -130 -10 -129 -9 -187 -14 -365 -30 -25 -2 -74 -7 -110 -10 -36 -3 -85
-8 -110 -10 -25 -2 -81 -7 -125 -10 -44 -4 -100 -8 -125 -10 -194 -17 -354
-20 -920 -20 -575 0 -657 2 -755 18 -391 64 -537 160 -569 372 -23 153 -33
442 -26 760 2 105 20 144 80 175 81 41 129 43 1074 37 495 -4 946 -9 1001 -11
147 -8 305 -17 345 -21 120 -11 177 -17 190 -20 8 -2 51 -7 95 -11 44 -3 88
-8 99 -10 52 -10 168 -19 223 -18 65 2 124 28 138 62 5 9 9 62 11 117 5 202
16 491 19 530 2 22 6 89 10 148 3 59 8 116 9 125 2 9 7 53 11 97 4 44 9 91 10
105 1 14 6 59 9 100 4 41 9 82 11 90 2 8 6 47 10 85 3 39 7 86 10 105 2 19 7
58 10 85 3 28 14 127 26 220 25 201 25 219 -1 256 -32 43 -74 52 -223 45 -72
-4 -133 -9 -136 -10 -3 -2 -40 -7 -81 -10 -107 -10 -179 -16 -225 -21 -117
-11 -188 -17 -265 -20 -47 -2 -155 -6 -240 -10 -286 -12 -343 -14 -735 -19
-214 -4 -469 -9 -565 -12 -423 -14 -522 -13 -600 5 -41 10 -88 24 -105 30
-153 62 -217 255 -216 656 0 189 9 348 23 400 24 92 102 148 243 173 74 13
975 5 1335 -13 41 -2 140 -6 220 -10 80 -3 170 -8 200 -10 30 -2 107 -6 170
-9 63 -4 147 -9 185 -11 39 -3 108 -7 155 -10 164 -10 372 -24 430 -30 25 -2
90 -7 145 -11 55 -3 114 -8 130 -10 17 -2 82 -6 146 -10 197 -11 216 9 205
230 -6 138 -12 229 -21 336 -3 36 -8 88 -10 115 -5 63 -14 166 -20 225 -2 25
-7 77 -10 115 -3 39 -8 88 -10 110 -5 49 -14 143 -20 210 -3 28 -7 70 -10 95
-5 52 -13 119 -20 188 -3 26 -8 64 -11 85 -3 20 -7 47 -9 60 -22 158 -72 230
-194 279 -55 22 -65 23 -406 22 -312 0 -540 -4 -1080 -18 -88 -2 -302 -8 -475
-12 -392 -11 -1459 -11 -1840 -1 -157 5 -359 10 -450 12 -445 12 -596 15 -975
20 -328 3 -416 2 -440 -9z"/>
<path d="M14466 11809 c-27 -4 -63 -10 -80 -12 -17 -3 -51 -10 -76 -15 -25 -6
-56 -13 -70 -16 -72 -14 -306 -93 -385 -130 -16 -8 -48 -22 -70 -32 -113 -48
-293 -144 -500 -266 -291 -172 -501 -305 -545 -345 -24 -22 -26 -22 -38 -6
-12 17 -38 94 -46 139 -5 25 -23 168 -41 334 -20 178 -39 264 -66 301 -21 30
-23 31 -83 25 -58 -6 -76 -8 -156 -22 -19 -3 -44 -7 -55 -9 -11 -2 -74 -13
-140 -24 -66 -12 -133 -24 -150 -26 -16 -3 -53 -10 -81 -16 -28 -5 -64 -12
-80 -15 -16 -2 -110 -20 -209 -39 -149 -28 -344 -57 -600 -91 -22 -3 -51 -7
-65 -9 -14 -2 -50 -7 -80 -10 -30 -3 -66 -8 -80 -10 -14 -2 -50 -6 -80 -10
-30 -4 -66 -8 -80 -10 -25 -3 -90 -11 -169 -20 -52 -6 -68 -14 -101 -50 -38
-41 -33 -120 22 -355 26 -107 53 -238 62 -290 8 -52 17 -104 20 -115 2 -11 7
-49 11 -85 4 -36 8 -67 10 -70 1 -3 6 -32 9 -65 4 -33 8 -76 11 -95 16 -124
27 -243 40 -440 4 -52 8 -113 10 -135 19 -245 23 -967 15 -3221 -2 -685 -4
-658 52 -716 78 -80 234 -93 1083 -93 519 0 778 6 865 21 83 14 143 63 165
136 11 37 13 343 13 1735 0 1268 3 1701 12 1734 32 119 114 219 278 344 69 52
265 165 286 165 7 0 16 4 21 9 6 5 48 22 95 37 76 25 99 28 225 28 114 0 154
-4 218 -22 273 -77 426 -269 472 -592 10 -64 15 -213 21 -540 3 -195 8 -422
10 -505 10 -387 6 -880 -11 -1420 -1 -49 -6 -232 -10 -405 -12 -523 -12 -522
31 -597 67 -117 165 -128 1119 -128 914 0 962 6 1022 118 16 29 17 73 16 512
-2 264 -4 1277 -7 2250 -2 974 -7 1802 -11 1840 -23 242 -132 525 -269 699
-42 54 -191 204 -246 247 -113 90 -287 189 -430 244 -52 20 -103 41 -112 46
-10 5 -28 9 -41 9 -13 0 -27 4 -32 9 -10 9 -147 42 -250 61 -185 34 -542 49
-669 29z"/>
</g>
</svg>
